<svg width="127" height="24" viewBox="0 0 127 24" fill="none" xmlns="http://www.w3.org/2000/svg">
<path d="M3.5 9.75006V8.62506C3.49996 8.13294 3.60754 7.64676 3.81521 7.2006C4.02287 6.75445 4.32559 6.3591 4.70216 6.04227C5.07872 5.72544 5.52002 5.49479 5.99512 5.3665C6.47023 5.2382 6.96764 5.21535 7.4525 5.29956C7.76808 4.2047 8.4311 3.24214 9.34157 2.55705C10.252 1.87195 11.3606 1.50146 12.5 1.50146C13.6394 1.50146 14.748 1.87195 15.6584 2.55705C16.5689 3.24214 17.2319 4.2047 17.5475 5.29956C18.0324 5.21535 18.5298 5.2382 19.0049 5.3665C19.48 5.49479 19.9213 5.72544 20.2978 6.04227C20.6744 6.3591 20.9771 6.75445 21.1848 7.2006C21.3925 7.64676 21.5 8.13294 21.5 8.62506V9.75006C21.5003 12.0074 20.6524 14.1824 19.1243 15.8439C17.5962 17.5054 15.4995 18.5319 13.25 18.7201V21.0001H11.75V18.7201C9.50051 18.5319 7.40384 17.5054 5.87574 15.8439C4.34763 14.1824 3.49967 12.0074 3.5 9.75006ZM10.229 8.99856H14.771C14.7043 8.4042 14.797 7.8028 15.0395 7.25609C15.282 6.70938 15.6656 6.23704 16.151 5.88756C15.9567 5.0652 15.4905 4.33252 14.8279 3.80819C14.1652 3.28386 13.345 2.99858 12.5 2.99858C11.655 2.99858 10.8348 3.28386 10.1721 3.80819C9.50949 4.33252 9.04328 5.0652 8.849 5.88756C9.33459 6.23717 9.71836 6.70975 9.96089 7.25675C10.2034 7.80376 10.296 8.40546 10.229 9.00006V8.99856ZM8.5205 8.99856C8.57612 8.75164 8.57549 8.49536 8.51864 8.24872C8.46179 8.00208 8.35019 7.77138 8.1921 7.57372C8.034 7.37605 7.83347 7.21648 7.60535 7.10682C7.37723 6.99716 7.12736 6.94023 6.87425 6.94023C6.62114 6.94023 6.37127 6.99716 6.14315 7.10682C5.91503 7.21648 5.7145 7.37605 5.5564 7.57372C5.39831 7.77138 5.28671 8.00208 5.22986 8.24872C5.17301 8.49536 5.17238 8.75164 5.228 8.99856H8.5205ZM16.4795 8.99856H19.7705C19.8261 8.75164 19.8255 8.49536 19.7686 8.24872C19.7118 8.00208 19.6002 7.77138 19.4421 7.57372C19.284 7.37605 19.0835 7.21648 18.8554 7.10682C18.6272 6.99716 18.3774 6.94023 18.1243 6.94023C17.8711 6.94023 17.6213 6.99716 17.3932 7.10682C17.165 7.21648 16.9645 7.37605 16.8064 7.57372C16.6483 7.77138 16.5367 8.00208 16.4799 8.24872C16.423 8.49536 16.4224 8.75164 16.478 8.99856H16.4795ZM12.5 17.2501C14.3595 17.25 16.1527 16.5592 17.5317 15.3117C18.9106 14.0641 19.7769 12.3488 19.9625 10.4986H5.0375C5.22308 12.3488 6.08939 14.0641 7.46832 15.3117C8.84726 16.5592 10.6405 17.25 12.5 17.2501ZM9.5 21.0016H15.5C15.6989 21.0016 15.8897 21.0806 16.0303 21.2212C16.171 21.3619 16.25 21.5526 16.25 21.7516C16.25 21.9505 16.171 22.1412 16.0303 22.2819C15.8897 22.4225 15.6989 22.5016 15.5 22.5016H9.5C9.30109 22.5016 9.11032 22.4225 8.96967 22.2819C8.82902 22.1412 8.75 21.9505 8.75 21.7516C8.75 21.5526 8.82902 21.3619 8.96967 21.2212C9.11032 21.0806 9.30109 21.0016 9.5 21.0016Z" fill="#C73B0F"/>
<path d="M36 14.442H37.582C38.0393 14.442 38.45 14.316 38.814 14.064C39.178 13.812 39.4673 13.4713 39.682 13.042C39.906 12.6033 40.018 12.1227 40.018 11.6C40.018 11.068 39.906 10.5873 39.682 10.158C39.4673 9.72867 39.178 9.388 38.814 9.136C38.45 8.884 38.0393 8.758 37.582 8.758H36V14.442ZM33.592 16.5V6.7H37.582C38.2727 6.7 38.912 6.826 39.5 7.078C40.0973 7.33 40.62 7.68 41.068 8.128C41.5253 8.576 41.88 9.09867 42.132 9.696C42.384 10.284 42.51 10.9187 42.51 11.6C42.51 12.2813 42.384 12.9207 42.132 13.518C41.88 14.106 41.5253 14.624 41.068 15.072C40.62 15.52 40.0973 15.87 39.5 16.122C38.912 16.374 38.2727 16.5 37.582 16.5H33.592ZM47.3647 16.64C46.6554 16.64 46.0114 16.4767 45.4327 16.15C44.8634 15.814 44.4061 15.366 44.0607 14.806C43.7247 14.2367 43.5567 13.602 43.5567 12.902C43.5567 12.1927 43.7154 11.558 44.0327 10.998C44.3501 10.438 44.7841 9.99467 45.3347 9.668C45.8854 9.332 46.5061 9.164 47.1967 9.164C47.8967 9.164 48.5127 9.32733 49.0447 9.654C49.5767 9.98067 49.9921 10.4333 50.2907 11.012C50.5987 11.5813 50.7527 12.2393 50.7527 12.986V13.476H45.7827C45.8574 13.7467 45.9741 13.9847 46.1327 14.19C46.2914 14.3953 46.4874 14.554 46.7207 14.666C46.9541 14.778 47.2061 14.834 47.4767 14.834C47.7754 14.834 48.0461 14.7827 48.2887 14.68C48.5407 14.5773 48.7461 14.428 48.9047 14.232L50.4027 15.478C49.9361 15.8887 49.4647 16.1873 48.9887 16.374C48.5127 16.5513 47.9714 16.64 47.3647 16.64ZM45.7827 12.188H48.6527C48.5874 11.9267 48.4847 11.7027 48.3447 11.516C48.2047 11.3293 48.0367 11.1847 47.8407 11.082C47.6447 10.9793 47.4254 10.928 47.1827 10.928C46.9494 10.928 46.7347 10.9793 46.5387 11.082C46.3521 11.1753 46.1934 11.3153 46.0627 11.502C45.9414 11.6887 45.8481 11.9173 45.7827 12.188ZM54.8222 16.64C54.1689 16.64 53.5576 16.5653 52.9882 16.416C52.4189 16.2667 51.9242 16.0473 51.5042 15.758L52.4982 14.246C53.0209 14.5167 53.4502 14.708 53.7862 14.82C54.1316 14.9227 54.4769 14.974 54.8222 14.974C55.1489 14.974 55.4009 14.9227 55.5782 14.82C55.7649 14.708 55.8582 14.5633 55.8582 14.386C55.8582 14.246 55.8022 14.134 55.6902 14.05C55.5876 13.966 55.4196 13.9053 55.1862 13.868L53.8002 13.616C53.1002 13.4853 52.5682 13.2427 52.2042 12.888C51.8496 12.5333 51.6722 12.076 51.6722 11.516C51.6722 11.0213 51.7936 10.6013 52.0362 10.256C52.2789 9.90133 52.6242 9.63067 53.0722 9.444C53.5296 9.25733 54.0709 9.164 54.6962 9.164C55.2002 9.164 55.6996 9.234 56.1942 9.374C56.6889 9.514 57.1696 9.71933 57.6362 9.99L56.6002 11.432C56.2362 11.2173 55.8816 11.0633 55.5362 10.97C55.2002 10.8673 54.8642 10.816 54.5282 10.816C54.2576 10.816 54.0429 10.858 53.8842 10.942C53.7349 11.026 53.6602 11.1473 53.6602 11.306C53.6602 11.4553 53.7116 11.5673 53.8142 11.642C53.9262 11.7167 54.1222 11.7773 54.4022 11.824L55.7602 12.076C56.4789 12.2067 57.0202 12.4493 57.3842 12.804C57.7482 13.1587 57.9302 13.6113 57.9302 14.162C57.9302 14.6287 57.7949 15.0533 57.5242 15.436C57.2536 15.8093 56.8849 16.1033 56.4182 16.318C55.9516 16.5327 55.4196 16.64 54.8222 16.64ZM61.8326 16.64C61.1793 16.64 60.568 16.5653 59.9986 16.416C59.4293 16.2667 58.9346 16.0473 58.5146 15.758L59.5086 14.246C60.0313 14.5167 60.4606 14.708 60.7966 14.82C61.142 14.9227 61.4873 14.974 61.8326 14.974C62.1593 14.974 62.4113 14.9227 62.5886 14.82C62.7753 14.708 62.8686 14.5633 62.8686 14.386C62.8686 14.246 62.8126 14.134 62.7006 14.05C62.598 13.966 62.43 13.9053 62.1966 13.868L60.8106 13.616C60.1106 13.4853 59.5786 13.2427 59.2146 12.888C58.86 12.5333 58.6826 12.076 58.6826 11.516C58.6826 11.0213 58.804 10.6013 59.0466 10.256C59.2893 9.90133 59.6346 9.63067 60.0826 9.444C60.54 9.25733 61.0813 9.164 61.7066 9.164C62.2106 9.164 62.71 9.234 63.2046 9.374C63.6993 9.514 64.18 9.71933 64.6466 9.99L63.6106 11.432C63.2466 11.2173 62.892 11.0633 62.5466 10.97C62.2106 10.8673 61.8746 10.816 61.5386 10.816C61.268 10.816 61.0533 10.858 60.8946 10.942C60.7453 11.026 60.6706 11.1473 60.6706 11.306C60.6706 11.4553 60.722 11.5673 60.8246 11.642C60.9366 11.7167 61.1326 11.7773 61.4126 11.824L62.7706 12.076C63.4893 12.2067 64.0306 12.4493 64.3946 12.804C64.7586 13.1587 64.9406 13.6113 64.9406 14.162C64.9406 14.6287 64.8053 15.0533 64.5346 15.436C64.264 15.8093 63.8953 16.1033 63.4286 16.318C62.962 16.5327 62.43 16.64 61.8326 16.64ZM69.6674 16.64C68.958 16.64 68.314 16.4767 67.7354 16.15C67.166 15.814 66.7087 15.366 66.3634 14.806C66.0274 14.2367 65.8594 13.602 65.8594 12.902C65.8594 12.1927 66.018 11.558 66.3354 10.998C66.6527 10.438 67.0867 9.99467 67.6374 9.668C68.188 9.332 68.8087 9.164 69.4994 9.164C70.1994 9.164 70.8154 9.32733 71.3474 9.654C71.8794 9.98067 72.2947 10.4333 72.5934 11.012C72.9014 11.5813 73.0554 12.2393 73.0554 12.986V13.476H68.0854C68.16 13.7467 68.2767 13.9847 68.4354 14.19C68.594 14.3953 68.79 14.554 69.0234 14.666C69.2567 14.778 69.5087 14.834 69.7794 14.834C70.078 14.834 70.3487 14.7827 70.5914 14.68C70.8434 14.5773 71.0487 14.428 71.2074 14.232L72.7054 15.478C72.2387 15.8887 71.7674 16.1873 71.2914 16.374C70.8154 16.5513 70.274 16.64 69.6674 16.64ZM68.0854 12.188H70.9554C70.89 11.9267 70.7874 11.7027 70.6474 11.516C70.5074 11.3293 70.3394 11.1847 70.1434 11.082C69.9474 10.9793 69.728 10.928 69.4854 10.928C69.252 10.928 69.0374 10.9793 68.8414 11.082C68.6547 11.1753 68.496 11.3153 68.3654 11.502C68.244 11.6887 68.1507 11.9173 68.0854 12.188ZM74.3265 16.5V9.276H76.5945V10.914C76.8279 10.3073 77.1032 9.85933 77.4205 9.57C77.7472 9.28067 78.1252 9.136 78.5545 9.136C78.7132 9.14533 78.8439 9.15933 78.9465 9.178C79.0492 9.19667 79.1705 9.24333 79.3105 9.318V11.264C79.1705 11.1893 79.0072 11.1333 78.8205 11.096C78.6339 11.0587 78.4425 11.04 78.2465 11.04C77.9105 11.04 77.5979 11.124 77.3085 11.292C77.0192 11.4507 76.7812 11.6653 76.5945 11.936V16.5H74.3265ZM83.9219 16.64C83.0726 16.64 82.4286 16.444 81.9899 16.052C81.5512 15.66 81.3319 15.0813 81.3319 14.316V11.026H79.9319V9.276H81.3319V7.274L83.5999 6.812V9.276H85.5319V11.026H83.5999V13.868C83.5999 14.1853 83.6699 14.4093 83.8099 14.54C83.9592 14.6707 84.2066 14.736 84.5519 14.736C84.6826 14.736 84.8132 14.7267 84.9439 14.708C85.0746 14.6893 85.2519 14.6473 85.4759 14.582V16.416C85.2706 16.4813 85.0186 16.5327 84.7199 16.57C84.4212 16.6167 84.1552 16.64 83.9219 16.64ZM93.1458 16.654C92.3711 16.654 91.6338 16.528 90.9338 16.276C90.2338 16.024 89.5571 15.6553 88.9038 15.17L90.1358 13.392C90.8171 13.868 91.3958 14.204 91.8718 14.4C92.3478 14.596 92.8285 14.694 93.3138 14.694C93.6591 14.694 93.9531 14.652 94.1958 14.568C94.4478 14.4747 94.6391 14.3533 94.7698 14.204C94.9098 14.0453 94.9798 13.8633 94.9798 13.658C94.9798 13.3687 94.8818 13.1493 94.6858 13C94.4991 12.8413 94.1678 12.72 93.6918 12.636L91.6058 12.272C90.8311 12.1413 90.2338 11.8427 89.8138 11.376C89.4031 10.9093 89.1978 10.3307 89.1978 9.64C89.1978 9.00533 89.3518 8.45933 89.6598 8.002C89.9678 7.53533 90.4111 7.176 90.9898 6.924C91.5778 6.672 92.2778 6.546 93.0898 6.546C93.8458 6.546 94.5785 6.66267 95.2878 6.896C95.9971 7.12 96.6038 7.43267 97.1078 7.834L95.8898 9.584C95.4138 9.22 94.9378 8.94933 94.4618 8.772C93.9858 8.59467 93.4865 8.506 92.9638 8.506C92.6465 8.506 92.3758 8.548 92.1518 8.632C91.9278 8.70667 91.7551 8.814 91.6338 8.954C91.5218 9.094 91.4658 9.25267 91.4658 9.43C91.4658 9.682 91.5498 9.878 91.7178 10.018C91.8951 10.1487 92.1798 10.2513 92.5718 10.326L94.5318 10.662C95.4465 10.8113 96.1418 11.124 96.6178 11.6C97.0938 12.076 97.3318 12.6873 97.3318 13.434C97.3318 14.0687 97.1591 14.6287 96.8138 15.114C96.4778 15.5993 95.9971 15.9773 95.3718 16.248C94.7465 16.5187 94.0045 16.654 93.1458 16.654ZM101.891 16.64C101.041 16.64 100.397 16.444 99.9586 16.052C99.5199 15.66 99.3006 15.0813 99.3006 14.316V11.026H97.9006V9.276H99.3006V7.274L101.569 6.812V9.276H103.501V11.026H101.569V13.868C101.569 14.1853 101.639 14.4093 101.779 14.54C101.928 14.6707 102.175 14.736 102.521 14.736C102.651 14.736 102.782 14.7267 102.913 14.708C103.043 14.6893 103.221 14.6473 103.445 14.582V16.416C103.239 16.4813 102.987 16.5327 102.689 16.57C102.39 16.6167 102.124 16.64 101.891 16.64ZM108.01 16.64C107.292 16.64 106.648 16.4767 106.078 16.15C105.509 15.8233 105.056 15.38 104.72 14.82C104.394 14.2507 104.23 13.6113 104.23 12.902C104.23 12.1927 104.394 11.558 104.72 10.998C105.056 10.4287 105.509 9.98067 106.078 9.654C106.648 9.32733 107.287 9.164 107.996 9.164C108.715 9.164 109.354 9.32733 109.914 9.654C110.484 9.98067 110.932 10.4287 111.258 10.998C111.594 11.558 111.762 12.1927 111.762 12.902C111.762 13.6113 111.594 14.2507 111.258 14.82C110.932 15.38 110.484 15.8233 109.914 16.15C109.354 16.4767 108.72 16.64 108.01 16.64ZM107.996 14.75C108.304 14.75 108.575 14.6707 108.808 14.512C109.042 14.3533 109.224 14.134 109.354 13.854C109.485 13.574 109.55 13.2567 109.55 12.902C109.55 12.538 109.485 12.2207 109.354 11.95C109.224 11.67 109.042 11.4507 108.808 11.292C108.575 11.1333 108.304 11.054 107.996 11.054C107.698 11.054 107.427 11.1333 107.184 11.292C106.951 11.4507 106.769 11.67 106.638 11.95C106.508 12.2207 106.442 12.538 106.442 12.902C106.442 13.2567 106.508 13.574 106.638 13.854C106.769 14.134 106.951 14.3533 107.184 14.512C107.427 14.6707 107.698 14.75 107.996 14.75ZM113.067 16.5V9.276H115.335V10.914C115.568 10.3073 115.843 9.85933 116.161 9.57C116.487 9.28067 116.865 9.136 117.295 9.136C117.453 9.14533 117.584 9.15933 117.687 9.178C117.789 9.19667 117.911 9.24333 118.051 9.318V11.264C117.911 11.1893 117.747 11.1333 117.561 11.096C117.374 11.0587 117.183 11.04 116.987 11.04C116.651 11.04 116.338 11.124 116.049 11.292C115.759 11.4507 115.521 11.6653 115.335 11.936V16.5H113.067ZM122.387 16.64C121.678 16.64 121.034 16.4767 120.455 16.15C119.886 15.814 119.429 15.366 119.083 14.806C118.747 14.2367 118.579 13.602 118.579 12.902C118.579 12.1927 118.738 11.558 119.055 10.998C119.373 10.438 119.807 9.99467 120.357 9.668C120.908 9.332 121.529 9.164 122.219 9.164C122.919 9.164 123.535 9.32733 124.067 9.654C124.599 9.98067 125.015 10.4333 125.313 11.012C125.621 11.5813 125.775 12.2393 125.775 12.986V13.476H120.805C120.88 13.7467 120.997 13.9847 121.155 14.19C121.314 14.3953 121.51 14.554 121.743 14.666C121.977 14.778 122.229 14.834 122.499 14.834C122.798 14.834 123.069 14.7827 123.311 14.68C123.563 14.5773 123.769 14.428 123.927 14.232L125.425 15.478C124.959 15.8887 124.487 16.1873 124.011 16.374C123.535 16.5513 122.994 16.64 122.387 16.64ZM120.805 12.188H123.675C123.61 11.9267 123.507 11.7027 123.367 11.516C123.227 11.3293 123.059 11.1847 122.863 11.082C122.667 10.9793 122.448 10.928 122.205 10.928C121.972 10.928 121.757 10.9793 121.561 11.082C121.375 11.1753 121.216 11.3153 121.085 11.502C120.964 11.6887 120.871 11.9173 120.805 12.188Z" fill="#260F08"/>
</svg>
